<svg xmlns="http://www.w3.org/2000/svg" width="815.6038818359375" height="830.0524291992188" viewBox="-385.8729248046875 -427.5210266113281 815.6038818359375 830.0524291992188"><title>Neo4j Graph Visualization</title><desc>Created using Neo4j (http://www.neo4j.com/)</desc><g class="layer relationships"><g class="relationship" transform="translate(13.81554266561023 -22.0878531986411) rotate(321.38962404752283)"><path class="outline" fill="#A5ABB6" stroke="none" d="M 25 0.5 L 51.25550069048485 0.5 L 51.25550069048485 -0.5 L 25 -0.5 Z M 115.35549916460594 0.5 L 141.6109998550908 0.5 L 141.6109998550908 3.5 L 148.6109998550908 0 L 141.6109998550908 -3.5 L 141.6109998550908 -0.5 L 115.35549916460594 -0.5 Z"/><text text-anchor="middle" pointer-events="none" font-size="8px" fill="#000000" x="83.3054999275454" y="3" font-family="sans-serif">ns0__belongsTo</text></g><g class="relationship" transform="translate(13.81554266561023 -22.0878531986411) rotate(526.258253356955)"><path class="outline" fill="#A5ABB6" stroke="none" d="M 25 0.5 L 27.778683392563252 0.5 L 27.778683392563252 -0.5 L 25 -0.5 Z M 108.74535056785622 0.5 L 111.52403396041947 0.5 L 111.52403396041947 3.5 L 118.52403396041947 0 L 111.52403396041947 -3.5 L 111.52403396041947 -0.5 L 108.74535056785622 -0.5 Z"/><text text-anchor="middle" pointer-events="none" font-size="8px" fill="#000000" x="68.26201698020974" y="3" transform="rotate(180 68.26201698020974 0)" font-family="sans-serif">ns0__hasConnection</text></g><g class="relationship" transform="translate(-58.98565381538336 -200.74051797711397) rotate(427.8290395715686)"><path class="outline" fill="#A5ABB6" stroke="none" d="M 25 0.5 L 60.908267440183906 0.5 L 60.908267440183906 -0.5 L 25 -0.5 Z M 125.008265914305 0.5 L 160.9165333544889 0.5 L 160.9165333544889 3.5 L 167.9165333544889 0 L 160.9165333544889 -3.5 L 160.9165333544889 -0.5 L 125.008265914305 -0.5 Z"/><text text-anchor="middle" pointer-events="none" font-size="8px" fill="#000000" x="92.95826667724445" y="3" font-family="sans-serif">ns0__belongsTo</text></g><g class="relationship" transform="translate(281.5374525008707 354.3010185863854) rotate(200.65618546376743)"><path class="outline" fill="#A5ABB6" stroke="none" d="M 25 0.5 L 25.066767376278506 0.5 L 25.066767376278506 -0.5 L 25 -0.5 Z M 111.36677042803632 0.5 L 111.43353780431482 0.5 L 111.43353780431482 3.5 L 118.43353780431482 0 L 111.43353780431482 -3.5 L 111.43353780431482 -0.5 L 111.36677042803632 -0.5 Z"/><text text-anchor="middle" pointer-events="none" font-size="8px" fill="#000000" x="68.21676890215741" y="3" transform="rotate(180 68.21676890215741 0)" font-family="sans-serif">ns0__modelBelongs…</text></g><g class="relationship" transform="translate(97.995271274128 -266.76092333774955) rotate(482.1398933710846)"><path class="outline" fill="#A5ABB6" stroke="none" d="M 25 0.5 L 26.09638645542789 0.5 L 26.09638645542789 -0.5 L 25 -0.5 Z M 138.6297192801349 0.5 L 139.7261057355628 0.5 L 139.7261057355628 3.5 L 146.7261057355628 0 L 139.7261057355628 -3.5 L 139.7261057355628 -0.5 L 138.6297192801349 -0.5 Z"/><text text-anchor="middle" pointer-events="none" font-size="8px" fill="#000000" x="82.3630528677814" y="3" transform="rotate(180 82.3630528677814 0)" font-family="sans-serif">ns0__isRelatedToTargetOnt…</text></g><g class="relationship" transform="translate(97.995271274128 -266.76092333774955) rotate(429.3132140360392)"><path class="outline" fill="#A5ABB6" stroke="none" d="M 25 0.5 L 37.31607248230958 0.5 L 37.31607248230958 -0.5 L 25 -0.5 Z M 101.41607095643067 0.5 L 113.73214343874025 0.5 L 113.73214343874025 3.5 L 120.73214343874025 0 L 113.73214343874025 -3.5 L 113.73214343874025 -0.5 L 101.41607095643067 -0.5 Z"/><text text-anchor="middle" pointer-events="none" font-size="8px" fill="#000000" x="69.36607171937013" y="3" font-family="sans-serif">ns0__belongsTo</text></g><g class="relationship" transform="translate(97.995271274128 -266.76092333774955) rotate(293.77655129444054)"><path class="outline" fill="#A5ABB6" stroke="none" d="M 25 0.5 L 26.20691190083815 0.5 L 26.20691190083815 -0.5 L 25 -0.5 Z M 110.77357755025221 0.5 L 111.98048945109036 0.5 L 111.98048945109036 3.5 L 118.98048945109036 0 L 111.98048945109036 -3.5 L 111.98048945109036 -0.5 L 110.77357755025221 -0.5 Z"/><text text-anchor="middle" pointer-events="none" font-size="8px" fill="#000000" x="68.49024472554518" y="3" font-family="sans-serif">ns0__containsDatat…</text></g><g class="relationship" transform="translate(-125.60030211303032 12.005702628371768) rotate(497.1956516182633)"><path class="outline" fill="#A5ABB6" stroke="none" d="M 25 0.5 L 25.467359281604402 0.5 L 25.467359281604402 -0.5 L 25 -0.5 Z M 114.90069363219034 0.5 L 115.36805291379474 0.5 L 115.36805291379474 3.5 L 122.36805291379474 0 L 115.36805291379474 -3.5 L 115.36805291379474 -0.5 L 114.90069363219034 -0.5 Z"/><text text-anchor="middle" pointer-events="none" font-size="8px" fill="#000000" x="70.18402645689737" y="3" transform="rotate(180 70.18402645689737 0)" font-family="sans-serif">ns0__containsDatatype</text></g><g class="relationship" transform="translate(-125.60030211303032 12.005702628371768) rotate(314.7588312827566)"><path class="outline" fill="#A5ABB6" stroke="none" d="M 25 0.5 L 57.45339154873456 0.5 L 57.45339154873456 -0.5 L 25 -0.5 Z M 123.35339307461346 0.5 L 155.80678462334802 0.5 L 155.80678462334802 3.5 L 162.80678462334802 0 L 155.80678462334802 -3.5 L 155.80678462334802 -0.5 L 123.35339307461346 -0.5 Z"/><text text-anchor="middle" pointer-events="none" font-size="8px" fill="#000000" x="90.40339231167401" y="3" font-family="sans-serif">ns0__hasSource</text></g><g class="relationship" transform="translate(-125.60030211303032 12.005702628371768) rotate(213.0260173029028)"><path class="outline" fill="#A5ABB6" stroke="none" d="M 25 0.5 L 36.61716890634207 0.5 L 36.61716890634207 -0.5 L 25 -0.5 Z M 117.1505017310491 0.5 L 128.76767063739118 0.5 L 128.76767063739118 3.5 L 135.76767063739118 0 L 128.76767063739118 -3.5 L 128.76767063739118 -0.5 L 117.1505017310491 -0.5 Z"/><text text-anchor="middle" pointer-events="none" font-size="8px" fill="#000000" x="76.88383531869559" y="3" transform="rotate(180 76.88383531869559 0)" font-family="sans-serif">ns0__hasDestination</text></g><g class="relationship" transform="translate(-221.6650905467956 -228.9968680312037) rotate(369.85359321057354)"><path class="outline" fill="#A5ABB6" stroke="none" d="M 25 0.5 L 47.00758741254546 0.5 L 47.00758741254546 -0.5 L 25 -0.5 Z M 111.10758588666656 0.5 L 133.11517329921202 0.5 L 133.11517329921202 3.5 L 140.11517329921202 0 L 133.11517329921202 -3.5 L 133.11517329921202 -0.5 L 111.10758588666656 -0.5 Z"/><text text-anchor="middle" pointer-events="none" font-size="8px" fill="#000000" x="79.05758664960601" y="3" font-family="sans-serif">ns0__belongsTo</text></g><g class="relationship" transform="translate(-221.6650905467956 -228.9968680312037) rotate(464.1702216242894)"><path class="outline" fill="#A5ABB6" stroke="none" d="M 25 0.5 L 25.780550856415218 0.5 L 25.780550856415218 -0.5 L 25 -0.5 Z M 125.41388215524334 0.5 L 126.19443301165856 0.5 L 126.19443301165856 3.5 L 133.19443301165856 0 L 126.19443301165856 -3.5 L 126.19443301165856 -0.5 L 125.41388215524334 -0.5 Z"/><text text-anchor="middle" pointer-events="none" font-size="8px" fill="#000000" x="75.59721650582928" y="3" transform="rotate(180 75.59721650582928 0)" font-family="sans-serif">ns0__isRelatedToTarget…</text></g><g class="relationship" transform="translate(-221.6650905467956 -228.9968680312037) rotate(199.22501711870007)"><path class="outline" fill="#A5ABB6" stroke="none" d="M 25 0.5 L 25.813342225490786 0.5 L 25.813342225490786 -0.5 L 25 -0.5 Z M 110.38000787490485 0.5 L 111.19335010039563 0.5 L 111.19335010039563 3.5 L 118.19335010039563 0 L 111.19335010039563 -3.5 L 111.19335010039563 -0.5 L 110.38000787490485 -0.5 Z"/><text text-anchor="middle" pointer-events="none" font-size="8px" fill="#000000" x="68.09667505019782" y="3" transform="rotate(180 68.09667505019782 0)" font-family="sans-serif">ns0__containsDatat…</text></g><g class="relationship" transform="translate(255.9586003360626 208.16599388959503) rotate(498.6701687448137)"><path class="outline" fill="#A5ABB6" stroke="none" d="M 25 0.5 L 25.467184511130014 0.5 L 25.467184511130014 -0.5 L 25 -0.5 Z M 112.20051428407923 0.5 L 112.66769879520925 0.5 L 112.66769879520925 3.5 L 119.66769879520925 0 L 112.66769879520925 -3.5 L 112.66769879520925 -0.5 L 112.20051428407923 -0.5 Z"/><text text-anchor="middle" pointer-events="none" font-size="8px" fill="#000000" x="68.83384939760462" y="3" transform="rotate(180 68.83384939760462 0)" font-family="sans-serif">ns0__modelBelongsTo</text></g><g class="relationship" transform="translate(-126.2717482632057 -87.2603976316141) rotate(300.66509553771954)"><path class="outline" fill="#A5ABB6" stroke="none" d="M 25 0.5 L 30.414302130554958 0.5 L 30.414302130554958 -0.5 L 25 -0.5 Z M 94.51430060467605 0.5 L 99.92860273523101 0.5 L 99.92860273523101 3.5 L 106.92860273523101 0 L 99.92860273523101 -3.5 L 99.92860273523101 -0.5 L 94.51430060467605 -0.5 Z"/><text text-anchor="middle" pointer-events="none" font-size="8px" fill="#000000" x="62.464301367615505" y="3" font-family="sans-serif">ns0__belongsTo</text></g><g class="relationship" transform="translate(-126.2717482632057 -87.2603976316141) rotate(384.9491724811634)"><path class="outline" fill="#A5ABB6" stroke="none" d="M 25 0.5 L 38.13602054847087 0.5 L 38.13602054847087 -0.5 L 25 -0.5 Z M 109.36935032142009 0.5 L 122.50537086989095 0.5 L 122.50537086989095 3.5 L 129.50537086989095 0 L 122.50537086989095 -3.5 L 122.50537086989095 -0.5 L 109.36935032142009 -0.5 Z"/><text text-anchor="middle" pointer-events="none" font-size="8px" fill="#000000" x="73.75268543494548" y="3" font-family="sans-serif">ns0__activateNew</text></g><g class="relationship" transform="translate(257.47223107306013 -57.03515441774246) rotate(214.1984718668105)"><path class="outline" fill="#A5ABB6" stroke="none" d="M 25 0.5 L 29.736141396548774 0.5 L 29.736141396548774 -0.5 L 25 -0.5 Z M 93.83613987066987 0.5 L 98.57228126721864 0.5 L 98.57228126721864 3.5 L 105.57228126721864 0 L 98.57228126721864 -3.5 L 98.57228126721864 -0.5 L 93.83613987066987 -0.5 Z"/><text text-anchor="middle" pointer-events="none" font-size="8px" fill="#000000" x="61.78614063360932" y="3" transform="rotate(180 61.78614063360932 0)" font-family="sans-serif">ns0__belongsTo</text></g><g class="relationship" transform="translate(257.47223107306013 -57.03515441774246) rotate(351.84571586366815)"><path class="outline" fill="#A5ABB6" stroke="none" d="M 25 0.5 L 28.12759348389676 0.5 L 28.12759348389676 -0.5 L 25 -0.5 Z M 109.59426065918973 0.5 L 112.72185414308649 0.5 L 112.72185414308649 3.5 L 119.72185414308649 0 L 112.72185414308649 -3.5 L 112.72185414308649 -0.5 L 109.59426065918973 -0.5 Z"/><text text-anchor="middle" pointer-events="none" font-size="8px" fill="#000000" x="68.86092707154324" y="3" font-family="sans-serif">ns0__activatesAction</text></g><g class="relationship" transform="translate(6.638996199982334 -121.35154813904123) rotate(356.365375891098)"><path class="outline" fill="#A5ABB6" stroke="none" d="M 25 0.5 L 26.912679581079857 0.5 L 26.912679581079857 -0.5 L 25 -0.5 Z M 109.21268263283767 0.5 L 111.12536221391753 0.5 L 111.12536221391753 3.5 L 118.12536221391753 0 L 111.12536221391753 -3.5 L 111.12536221391753 -0.5 L 109.21268263283767 -0.5 Z"/><text text-anchor="middle" pointer-events="none" font-size="8px" fill="#000000" x="68.06268110695876" y="3" font-family="sans-serif">ns0__modelBelong…</text></g><g class="relationship" transform="translate(-129.94337191319397 373.5313908302587) rotate(197.86209168893913)"><path class="outline" fill="#A5ABB6" stroke="none" d="M 25 0.5 L 31.132544916655576 0.5 L 31.132544916655576 -0.5 L 25 -0.5 Z M 105.43254796841339 0.5 L 111.56509288506896 0.5 L 111.56509288506896 3.5 L 118.56509288506896 0 L 111.56509288506896 -3.5 L 111.56509288506896 -0.5 L 105.43254796841339 -0.5 Z"/><text text-anchor="middle" pointer-events="none" font-size="8px" fill="#000000" x="68.28254644253448" y="3" transform="rotate(180 68.28254644253448 0)" font-family="sans-serif">ns0__hasCondition</text></g><g class="relationship" transform="translate(16.48247901752867 368.85400276291045) rotate(538.1703811492538)"><path class="outline" fill="#A5ABB6" stroke="none" d="M 25 0.5 L 36.800268485573866 0.5 L 36.800268485573866 -0.5 L 25 -0.5 Z M 102.70027001145277 0.5 L 114.50053849702664 0.5 L 114.50053849702664 3.5 L 121.50053849702664 0 L 114.50053849702664 -3.5 L 114.50053849702664 -0.5 L 102.70027001145277 -0.5 Z"/><text text-anchor="middle" pointer-events="none" font-size="8px" fill="#000000" x="69.75026924851332" y="3" transform="rotate(180 69.75026924851332 0)" font-family="sans-serif">ns0__hasBranch</text></g><g class="relationship" transform="translate(16.48247901752867 368.85400276291045) rotate(333.52981845202714)"><path class="outline" fill="#A5ABB6" stroke="none" d="M 25 0.5 L 37.53260701701528 0.5 L 37.53260701701528 -0.5 L 25 -0.5 Z M 101.63260549113637 0.5 L 114.16521250815165 0.5 L 114.16521250815165 3.5 L 121.16521250815165 0 L 114.16521250815165 -3.5 L 114.16521250815165 -0.5 L 101.63260549113637 -0.5 Z"/><text text-anchor="middle" pointer-events="none" font-size="8px" fill="#000000" x="69.58260625407583" y="3" font-family="sans-serif">ns0__belongsTo</text></g></g><g class="layer nodes"><g class="node" aria-label="graph-node2" transform="translate(13.81554266561023,-22.0878531986411)"><circle class="outline" cx="0" cy="0" r="25" fill="#569480" stroke="#447666" stroke-width="2px"/><text class="caption" text-anchor="middle" pointer-events="none" x="0" y="5" font-size="10px" fill="#FFFFFF" font-family="sans-serif"> 3</text></g><g class="node" aria-label="graph-node4" transform="translate(400.7309065124392,-77.56237970435728)"><circle class="outline" cx="0" cy="0" r="25" fill="#569480" stroke="#447666" stroke-width="2px"/><text class="caption" text-anchor="middle" pointer-events="none" x="0" y="5" font-size="10px" fill="#FFFFFF" font-family="sans-serif"> </text></g><g class="node" aria-label="graph-node6" transform="translate(147.32467417170938,303.703489988348)"><circle class="outline" cx="0" cy="0" r="25" fill="#569480" stroke="#447666" stroke-width="2px"/><text class="caption" text-anchor="middle" pointer-events="none" x="0" y="5" font-size="10px" fill="#FFFFFF" font-family="sans-serif"> </text></g><g class="node" aria-label="graph-node7" transform="translate(-58.98565381538336,-200.74051797711397)"><circle class="outline" cx="0" cy="0" r="25" fill="#569480" stroke="#447666" stroke-width="2px"/><text class="caption" text-anchor="middle" pointer-events="none" x="0" y="5" font-size="10px" fill="#FFFFFF" font-family="sans-serif"> </text></g><g class="node" aria-label="graph-node9" transform="translate(149.47647628829577,-130.4247830024049)"><circle class="outline" cx="0" cy="0" r="25" fill="#569480" stroke="#447666" stroke-width="2px"/><text class="caption" text-anchor="middle" pointer-events="none" x="0" y="5" font-size="10px" fill="#FFFFFF" font-family="sans-serif"> 1</text></g><g class="node" aria-label="graph-node10" transform="translate(281.5374525008707,354.3010185863854)"><circle class="outline" cx="0" cy="0" r="25" fill="#569480" stroke="#447666" stroke-width="2px"/><text class="caption" text-anchor="middle" pointer-events="none" x="0" y="5" font-size="10px" fill="#FFFFFF" font-family="sans-serif"> </text></g><g class="node" aria-label="graph-node11" transform="translate(97.995271274128,-266.76092333774955)"><circle class="outline" cx="0" cy="0" r="25" fill="#569480" stroke="#447666" stroke-width="2px"/><text class="caption" text-anchor="middle" pointer-events="none" x="0" y="5" font-size="10px" fill="#FFFFFF" font-family="sans-serif"> 1</text></g><g class="node" aria-label="graph-node12" transform="translate(156.0440016592015,-398.5210320325157)"><circle class="outline" cx="0" cy="0" r="25" fill="#569480" stroke="#447666" stroke-width="2px"/><text class="caption" text-anchor="middle" pointer-events="none" x="0" y="5" font-size="10px" fill="#FFFFFF" font-family="sans-serif"> </text></g><g class="node" aria-label="graph-node13" transform="translate(-266.5882756383022,329.4961074650482)"><circle class="outline" cx="0" cy="0" r="25" fill="#569480" stroke="#447666" stroke-width="2px"/><text class="caption" text-anchor="middle" pointer-events="none" x="0" y="5" font-size="10px" fill="#FFFFFF" font-family="sans-serif"> </text></g><g class="node" aria-label="graph-node14" transform="translate(-356.87293224660107,-276.14742535404787)"><circle class="outline" cx="0" cy="0" r="25" fill="#569480" stroke="#447666" stroke-width="2px"/><text class="caption" text-anchor="middle" pointer-events="none" x="0" y="5" font-size="10px" fill="#FFFFFF" font-family="sans-serif"> </text></g><g class="node" aria-label="graph-node17" transform="translate(-125.60030211303032,12.005702628371768)"><circle class="outline" cx="0" cy="0" r="25" fill="#569480" stroke="#447666" stroke-width="2px"/><text class="caption" text-anchor="middle" pointer-events="none" x="0" y="5" font-size="10px" fill="#FFFFFF" font-family="sans-serif"> </text></g><g class="node" aria-label="graph-node18" transform="translate(-221.6650905467956,-228.9968680312037)"><circle class="outline" cx="0" cy="0" r="25" fill="#569480" stroke="#447666" stroke-width="2px"/><text class="caption" text-anchor="middle" pointer-events="none" x="0" y="5" font-size="10px" fill="#FFFFFF" font-family="sans-serif"> 1</text></g><g class="node" aria-label="graph-node19" transform="translate(255.9586003360626,208.16599388959503)"><circle class="outline" cx="0" cy="0" r="25" fill="#569480" stroke="#447666" stroke-width="2px"/><text class="caption" text-anchor="middle" pointer-events="none" x="0" y="5" font-size="10px" fill="#FFFFFF" font-family="sans-serif"> </text></g><g class="node" aria-label="graph-node21" transform="translate(-126.2717482632057,-87.2603976316141)"><circle class="outline" cx="0" cy="0" r="25" fill="#569480" stroke="#447666" stroke-width="2px"/><text class="caption" text-anchor="middle" pointer-events="none" x="0" y="5" font-size="10px" fill="#FFFFFF" font-family="sans-serif"> 1</text></g><g class="node" aria-label="graph-node22" transform="translate(257.47223107306013,-57.03515441774246)"><circle class="outline" cx="0" cy="0" r="25" fill="#569480" stroke="#447666" stroke-width="2px"/><text class="caption" text-anchor="middle" pointer-events="none" x="0" y="5" font-size="10px" fill="#FFFFFF" font-family="sans-serif"> 2</text></g><g class="node" aria-label="graph-node23" transform="translate(6.638996199982334,-121.35154813904123)"><circle class="outline" cx="0" cy="0" r="25" fill="#569480" stroke="#447666" stroke-width="2px"/><text class="caption" text-anchor="middle" pointer-events="none" x="0" y="5" font-size="10px" fill="#FFFFFF" font-family="sans-serif"> </text></g><g class="node" aria-label="graph-node24" transform="translate(-260.39164178576425,-75.61586247635778)"><circle class="outline" cx="0" cy="0" r="25" fill="#569480" stroke="#447666" stroke-width="2px"/><text class="caption" text-anchor="middle" pointer-events="none" x="0" y="5" font-size="10px" fill="#FFFFFF" font-family="sans-serif"> </text></g><g class="node" aria-label="graph-node25" transform="translate(-129.94337191319397,373.5313908302587)"><circle class="outline" cx="0" cy="0" r="25" fill="#569480" stroke="#447666" stroke-width="2px"/><text class="caption" text-anchor="middle" pointer-events="none" x="0" y="5" font-size="10px" fill="#FFFFFF" font-family="sans-serif"> </text></g><g class="node" aria-label="graph-node27" transform="translate(-233.72104423030217,112.1418506649994)"><circle class="outline" cx="0" cy="0" r="25" fill="#569480" stroke="#447666" stroke-width="2px"/><text class="caption" text-anchor="middle" pointer-events="none" x="0" y="5" font-size="10px" fill="#FFFFFF" font-family="sans-serif"> </text></g><g class="node" aria-label="graph-node28" transform="translate(16.48247901752867,368.85400276291045)"><circle class="outline" cx="0" cy="0" r="25" fill="#569480" stroke="#447666" stroke-width="2px"/><text class="caption" text-anchor="middle" pointer-events="none" x="0" y="5" font-size="10px" fill="#FFFFFF" font-family="sans-serif"> </text></g></g></svg>